<svg xmlns="http://www.w3.org/2000/svg" version="1.1" xmlns:xlink="http://www.w3.org/1999/xlink" xmlns:svgjs="http://svgjs.dev/svgjs" width="1440" height="1020" preserveAspectRatio="none" viewBox="0 0 1440 1020"><g mask="url(&quot;#SvgjsMask2573&quot;)" fill="none"><rect width="1440" height="1020" x="0" y="0" fill="url(&quot;#SvgjsLinearGradient2574&quot;)"></rect><path d="M8.47 -10.57L73.42 26.93L73.42 101.93L8.47 139.43L-56.48 101.93L-56.48 26.93zM8.47 214.43L73.42 251.93L73.42 326.93L8.47 364.43L-56.48 326.93L-56.48 251.93zM73.42 551.93L138.38 589.43L138.38 664.43L73.42 701.93L8.47 664.43L8.47 589.43zM8.47 889.43L73.42 926.93L73.42 1001.93L8.47 1039.43L-56.48 1001.93L-56.48 926.93zM203.33 551.93L268.29 589.43L268.29 664.43L203.33 701.93L138.38 664.43L138.38 589.43zM268.29 214.43L333.24 251.93L333.24 326.93L268.29 364.43L203.33 326.93L203.33 251.93zM333.24 326.93L398.19 364.43L398.19 439.43L333.24 476.93L268.29 439.43L268.29 364.43zM333.24 551.93L398.19 589.43L398.19 664.43L333.24 701.93L268.29 664.43L268.29 589.43zM333.24 776.93L398.19 814.43L398.19 889.43L333.24 926.93L268.29 889.43L268.29 814.43zM268.29 889.43L333.24 926.93L333.24 1001.93L268.29 1039.43L203.33 1001.93L203.33 926.93zM333.24 1001.93L398.19 1039.43L398.19 1114.43L333.24 1151.93L268.29 1114.43L268.29 1039.43zM463.15 101.93L528.1 139.43L528.1 214.43L463.15 251.93L398.19 214.43L398.19 139.43zM463.15 326.93L528.1 364.43L528.1 439.43L463.15 476.93L398.19 439.43L398.19 364.43zM463.15 551.93L528.1 589.43L528.1 664.43L463.15 701.93L398.19 664.43L398.19 589.43zM463.15 776.93L528.1 814.43L528.1 889.43L463.15 926.93L398.19 889.43L398.19 814.43zM398.19 889.43L463.15 926.93L463.15 1001.93L398.19 1039.43L333.24 1001.93L333.24 926.93zM528.1 439.43L593.05 476.93L593.05 551.93L528.1 589.43L463.15 551.93L463.15 476.93zM722.96 776.93L787.92 814.43L787.92 889.43L722.96 926.93L658.01 889.43L658.01 814.43zM787.91 -10.57L852.87 26.93L852.87 101.93L787.91 139.43L722.96 101.93L722.96 26.93zM982.78 101.93L1047.73 139.43L1047.73 214.43L982.78 251.93L917.82 214.43L917.82 139.43zM982.78 1001.93L1047.73 1039.43L1047.73 1114.43L982.78 1151.93L917.82 1114.43L917.82 1039.43zM1047.73 -10.57L1112.68 26.93L1112.68 101.93L1047.73 139.43L982.78 101.93L982.78 26.93zM1112.68 101.93L1177.64 139.43L1177.64 214.43L1112.68 251.93L1047.73 214.43L1047.73 139.43zM1047.73 664.43L1112.68 701.93L1112.68 776.93L1047.73 814.43L982.78 776.93L982.78 701.93zM1112.68 776.93L1177.64 814.43L1177.64 889.43L1112.68 926.93L1047.73 889.43L1047.73 814.43zM1177.64 -10.57L1242.59 26.93L1242.59 101.93L1177.64 139.43L1112.68 101.93L1112.68 26.93zM1242.59 101.93L1307.54 139.43L1307.54 214.43L1242.59 251.93L1177.64 214.43L1177.64 139.43zM1177.64 214.43L1242.59 251.93L1242.59 326.93L1177.64 364.43L1112.68 326.93L1112.68 251.93zM1177.64 439.43L1242.59 476.93L1242.59 551.93L1177.64 589.43L1112.68 551.93L1112.68 476.93zM1242.59 776.93L1307.54 814.43L1307.54 889.43L1242.59 926.93L1177.64 889.43L1177.64 814.43zM1307.55 -10.57L1372.5 26.93L1372.5 101.93L1307.55 139.43L1242.59 101.93L1242.59 26.93zM1307.55 214.43L1372.5 251.93L1372.5 326.93L1307.55 364.43L1242.59 326.93L1242.59 251.93zM1307.55 889.43L1372.5 926.93L1372.5 1001.93L1307.55 1039.43L1242.59 1001.93L1242.59 926.93zM1502.41 326.93L1567.36 364.43L1567.36 439.43L1502.41 476.93L1437.45 439.43L1437.45 364.43z" stroke="url(&quot;#SvgjsLinearGradient2575&quot;)" stroke-width="2"></path><path d="M0.97 -10.57 a7.5 7.5 0 1 0 15 0 a7.5 7.5 0 1 0 -15 0zM65.92 26.93 a7.5 7.5 0 1 0 15 0 a7.5 7.5 0 1 0 -15 0zM65.92 101.93 a7.5 7.5 0 1 0 15 0 a7.5 7.5 0 1 0 -15 0zM0.97 139.43 a7.5 7.5 0 1 0 15 0 a7.5 7.5 0 1 0 -15 0zM-63.98 101.93 a7.5 7.5 0 1 0 15 0 a7.5 7.5 0 1 0 -15 0zM-63.98 26.93 a7.5 7.5 0 1 0 15 0 a7.5 7.5 0 1 0 -15 0zM0.97 214.43 a7.5 7.5 0 1 0 15 0 a7.5 7.5 0 1 0 -15 0zM65.92 251.93 a7.5 7.5 0 1 0 15 0 a7.5 7.5 0 1 0 -15 0zM65.92 326.93 a7.5 7.5 0 1 0 15 0 a7.5 7.5 0 1 0 -15 0zM0.97 364.43 a7.5 7.5 0 1 0 15 0 a7.5 7.5 0 1 0 -15 0zM-63.98 326.93 a7.5 7.5 0 1 0 15 0 a7.5 7.5 0 1 0 -15 0zM-63.98 251.93 a7.5 7.5 0 1 0 15 0 a7.5 7.5 0 1 0 -15 0zM65.92 551.93 a7.5 7.5 0 1 0 15 0 a7.5 7.5 0 1 0 -15 0zM130.88 589.43 a7.5 7.5 0 1 0 15 0 a7.5 7.5 0 1 0 -15 0zM130.88 664.43 a7.5 7.5 0 1 0 15 0 a7.5 7.5 0 1 0 -15 0zM65.92 701.93 a7.5 7.5 0 1 0 15 0 a7.5 7.5 0 1 0 -15 0zM0.97 664.43 a7.5 7.5 0 1 0 15 0 a7.5 7.5 0 1 0 -15 0zM0.97 589.43 a7.5 7.5 0 1 0 15 0 a7.5 7.5 0 1 0 -15 0zM0.97 889.43 a7.5 7.5 0 1 0 15 0 a7.5 7.5 0 1 0 -15 0zM65.92 926.93 a7.5 7.5 0 1 0 15 0 a7.5 7.5 0 1 0 -15 0zM65.92 1001.93 a7.5 7.5 0 1 0 15 0 a7.5 7.5 0 1 0 -15 0zM0.97 1039.43 a7.5 7.5 0 1 0 15 0 a7.5 7.5 0 1 0 -15 0zM-63.98 1001.93 a7.5 7.5 0 1 0 15 0 a7.5 7.5 0 1 0 -15 0zM-63.98 926.93 a7.5 7.5 0 1 0 15 0 a7.5 7.5 0 1 0 -15 0zM195.83 551.93 a7.5 7.5 0 1 0 15 0 a7.5 7.5 0 1 0 -15 0zM260.79 589.43 a7.5 7.5 0 1 0 15 0 a7.5 7.5 0 1 0 -15 0zM260.79 664.43 a7.5 7.5 0 1 0 15 0 a7.5 7.5 0 1 0 -15 0zM195.83 701.93 a7.5 7.5 0 1 0 15 0 a7.5 7.5 0 1 0 -15 0zM260.79 214.43 a7.5 7.5 0 1 0 15 0 a7.5 7.5 0 1 0 -15 0zM325.74 251.93 a7.5 7.5 0 1 0 15 0 a7.5 7.5 0 1 0 -15 0zM325.74 326.93 a7.5 7.5 0 1 0 15 0 a7.5 7.5 0 1 0 -15 0zM260.79 364.43 a7.5 7.5 0 1 0 15 0 a7.5 7.5 0 1 0 -15 0zM195.83 326.93 a7.5 7.5 0 1 0 15 0 a7.5 7.5 0 1 0 -15 0zM195.83 251.93 a7.5 7.5 0 1 0 15 0 a7.5 7.5 0 1 0 -15 0zM390.69 364.43 a7.5 7.5 0 1 0 15 0 a7.5 7.5 0 1 0 -15 0zM390.69 439.43 a7.5 7.5 0 1 0 15 0 a7.5 7.5 0 1 0 -15 0zM325.74 476.93 a7.5 7.5 0 1 0 15 0 a7.5 7.5 0 1 0 -15 0zM260.79 439.43 a7.5 7.5 0 1 0 15 0 a7.5 7.5 0 1 0 -15 0zM325.74 551.93 a7.5 7.5 0 1 0 15 0 a7.5 7.5 0 1 0 -15 0zM390.69 589.43 a7.5 7.5 0 1 0 15 0 a7.5 7.5 0 1 0 -15 0zM390.69 664.43 a7.5 7.5 0 1 0 15 0 a7.5 7.5 0 1 0 -15 0zM325.74 701.93 a7.5 7.5 0 1 0 15 0 a7.5 7.5 0 1 0 -15 0zM325.74 776.93 a7.5 7.5 0 1 0 15 0 a7.5 7.5 0 1 0 -15 0zM390.69 814.43 a7.5 7.5 0 1 0 15 0 a7.5 7.5 0 1 0 -15 0zM390.69 889.43 a7.5 7.5 0 1 0 15 0 a7.5 7.5 0 1 0 -15 0zM325.74 926.93 a7.5 7.5 0 1 0 15 0 a7.5 7.5 0 1 0 -15 0zM260.79 889.43 a7.5 7.5 0 1 0 15 0 a7.5 7.5 0 1 0 -15 0zM260.79 814.43 a7.5 7.5 0 1 0 15 0 a7.5 7.5 0 1 0 -15 0zM325.74 1001.93 a7.5 7.5 0 1 0 15 0 a7.5 7.5 0 1 0 -15 0zM260.79 1039.43 a7.5 7.5 0 1 0 15 0 a7.5 7.5 0 1 0 -15 0zM195.83 1001.93 a7.5 7.5 0 1 0 15 0 a7.5 7.5 0 1 0 -15 0zM195.83 926.93 a7.5 7.5 0 1 0 15 0 a7.5 7.5 0 1 0 -15 0zM390.69 1039.43 a7.5 7.5 0 1 0 15 0 a7.5 7.5 0 1 0 -15 0zM390.69 1114.43 a7.5 7.5 0 1 0 15 0 a7.5 7.5 0 1 0 -15 0zM325.74 1151.93 a7.5 7.5 0 1 0 15 0 a7.5 7.5 0 1 0 -15 0zM260.79 1114.43 a7.5 7.5 0 1 0 15 0 a7.5 7.5 0 1 0 -15 0zM455.65 101.93 a7.5 7.5 0 1 0 15 0 a7.5 7.5 0 1 0 -15 0zM520.6 139.43 a7.5 7.5 0 1 0 15 0 a7.5 7.5 0 1 0 -15 0zM520.6 214.43 a7.5 7.5 0 1 0 15 0 a7.5 7.5 0 1 0 -15 0zM455.65 251.93 a7.5 7.5 0 1 0 15 0 a7.5 7.5 0 1 0 -15 0zM390.69 214.43 a7.5 7.5 0 1 0 15 0 a7.5 7.5 0 1 0 -15 0zM390.69 139.43 a7.5 7.5 0 1 0 15 0 a7.5 7.5 0 1 0 -15 0zM455.65 326.93 a7.5 7.5 0 1 0 15 0 a7.5 7.5 0 1 0 -15 0zM520.6 364.43 a7.5 7.5 0 1 0 15 0 a7.5 7.5 0 1 0 -15 0zM520.6 439.43 a7.5 7.5 0 1 0 15 0 a7.5 7.5 0 1 0 -15 0zM455.65 476.93 a7.5 7.5 0 1 0 15 0 a7.5 7.5 0 1 0 -15 0zM455.65 551.93 a7.5 7.5 0 1 0 15 0 a7.5 7.5 0 1 0 -15 0zM520.6 589.43 a7.5 7.5 0 1 0 15 0 a7.5 7.5 0 1 0 -15 0zM520.6 664.43 a7.5 7.5 0 1 0 15 0 a7.5 7.5 0 1 0 -15 0zM455.65 701.93 a7.5 7.5 0 1 0 15 0 a7.5 7.5 0 1 0 -15 0zM455.65 776.93 a7.5 7.5 0 1 0 15 0 a7.5 7.5 0 1 0 -15 0zM520.6 814.43 a7.5 7.5 0 1 0 15 0 a7.5 7.5 0 1 0 -15 0zM520.6 889.43 a7.5 7.5 0 1 0 15 0 a7.5 7.5 0 1 0 -15 0zM455.65 926.93 a7.5 7.5 0 1 0 15 0 a7.5 7.5 0 1 0 -15 0zM455.65 1001.93 a7.5 7.5 0 1 0 15 0 a7.5 7.5 0 1 0 -15 0zM585.55 476.93 a7.5 7.5 0 1 0 15 0 a7.5 7.5 0 1 0 -15 0zM585.55 551.93 a7.5 7.5 0 1 0 15 0 a7.5 7.5 0 1 0 -15 0zM715.46 776.93 a7.5 7.5 0 1 0 15 0 a7.5 7.5 0 1 0 -15 0zM780.42 814.43 a7.5 7.5 0 1 0 15 0 a7.5 7.5 0 1 0 -15 0zM780.42 889.43 a7.5 7.5 0 1 0 15 0 a7.5 7.5 0 1 0 -15 0zM715.46 926.93 a7.5 7.5 0 1 0 15 0 a7.5 7.5 0 1 0 -15 0zM650.51 889.43 a7.5 7.5 0 1 0 15 0 a7.5 7.5 0 1 0 -15 0zM650.51 814.43 a7.5 7.5 0 1 0 15 0 a7.5 7.5 0 1 0 -15 0zM780.41 -10.57 a7.5 7.5 0 1 0 15 0 a7.5 7.5 0 1 0 -15 0zM845.37 26.93 a7.5 7.5 0 1 0 15 0 a7.5 7.5 0 1 0 -15 0zM845.37 101.93 a7.5 7.5 0 1 0 15 0 a7.5 7.5 0 1 0 -15 0zM780.41 139.43 a7.5 7.5 0 1 0 15 0 a7.5 7.5 0 1 0 -15 0zM715.46 101.93 a7.5 7.5 0 1 0 15 0 a7.5 7.5 0 1 0 -15 0zM715.46 26.93 a7.5 7.5 0 1 0 15 0 a7.5 7.5 0 1 0 -15 0zM975.28 101.93 a7.5 7.5 0 1 0 15 0 a7.5 7.5 0 1 0 -15 0zM1040.23 139.43 a7.5 7.5 0 1 0 15 0 a7.5 7.5 0 1 0 -15 0zM1040.23 214.43 a7.5 7.5 0 1 0 15 0 a7.5 7.5 0 1 0 -15 0zM975.28 251.93 a7.5 7.5 0 1 0 15 0 a7.5 7.5 0 1 0 -15 0zM910.32 214.43 a7.5 7.5 0 1 0 15 0 a7.5 7.5 0 1 0 -15 0zM910.32 139.43 a7.5 7.5 0 1 0 15 0 a7.5 7.5 0 1 0 -15 0zM975.28 1001.93 a7.5 7.5 0 1 0 15 0 a7.5 7.5 0 1 0 -15 0zM1040.23 1039.43 a7.5 7.5 0 1 0 15 0 a7.5 7.5 0 1 0 -15 0zM1040.23 1114.43 a7.5 7.5 0 1 0 15 0 a7.5 7.5 0 1 0 -15 0zM975.28 1151.93 a7.5 7.5 0 1 0 15 0 a7.5 7.5 0 1 0 -15 0zM910.32 1114.43 a7.5 7.5 0 1 0 15 0 a7.5 7.5 0 1 0 -15 0zM910.32 1039.43 a7.5 7.5 0 1 0 15 0 a7.5 7.5 0 1 0 -15 0zM1040.23 -10.57 a7.5 7.5 0 1 0 15 0 a7.5 7.5 0 1 0 -15 0zM1105.18 26.93 a7.5 7.5 0 1 0 15 0 a7.5 7.5 0 1 0 -15 0zM1105.18 101.93 a7.5 7.5 0 1 0 15 0 a7.5 7.5 0 1 0 -15 0zM975.28 26.93 a7.5 7.5 0 1 0 15 0 a7.5 7.5 0 1 0 -15 0zM1170.14 139.43 a7.5 7.5 0 1 0 15 0 a7.5 7.5 0 1 0 -15 0zM1170.14 214.43 a7.5 7.5 0 1 0 15 0 a7.5 7.5 0 1 0 -15 0zM1105.18 251.93 a7.5 7.5 0 1 0 15 0 a7.5 7.5 0 1 0 -15 0zM1040.23 664.43 a7.5 7.5 0 1 0 15 0 a7.5 7.5 0 1 0 -15 0zM1105.18 701.93 a7.5 7.5 0 1 0 15 0 a7.5 7.5 0 1 0 -15 0zM1105.18 776.93 a7.5 7.5 0 1 0 15 0 a7.5 7.5 0 1 0 -15 0zM1040.23 814.43 a7.5 7.5 0 1 0 15 0 a7.5 7.5 0 1 0 -15 0zM975.28 776.93 a7.5 7.5 0 1 0 15 0 a7.5 7.5 0 1 0 -15 0zM975.28 701.93 a7.5 7.5 0 1 0 15 0 a7.5 7.5 0 1 0 -15 0zM1170.14 814.43 a7.5 7.5 0 1 0 15 0 a7.5 7.5 0 1 0 -15 0zM1170.14 889.43 a7.5 7.5 0 1 0 15 0 a7.5 7.5 0 1 0 -15 0zM1105.18 926.93 a7.5 7.5 0 1 0 15 0 a7.5 7.5 0 1 0 -15 0zM1040.23 889.43 a7.5 7.5 0 1 0 15 0 a7.5 7.5 0 1 0 -15 0zM1170.14 -10.57 a7.5 7.5 0 1 0 15 0 a7.5 7.5 0 1 0 -15 0zM1235.09 26.93 a7.5 7.5 0 1 0 15 0 a7.5 7.5 0 1 0 -15 0zM1235.09 101.93 a7.5 7.5 0 1 0 15 0 a7.5 7.5 0 1 0 -15 0zM1300.04 139.43 a7.5 7.5 0 1 0 15 0 a7.5 7.5 0 1 0 -15 0zM1300.04 214.43 a7.5 7.5 0 1 0 15 0 a7.5 7.5 0 1 0 -15 0zM1235.09 251.93 a7.5 7.5 0 1 0 15 0 a7.5 7.5 0 1 0 -15 0zM1235.09 326.93 a7.5 7.5 0 1 0 15 0 a7.5 7.5 0 1 0 -15 0zM1170.14 364.43 a7.5 7.5 0 1 0 15 0 a7.5 7.5 0 1 0 -15 0zM1105.18 326.93 a7.5 7.5 0 1 0 15 0 a7.5 7.5 0 1 0 -15 0zM1170.14 439.43 a7.5 7.5 0 1 0 15 0 a7.5 7.5 0 1 0 -15 0zM1235.09 476.93 a7.5 7.5 0 1 0 15 0 a7.5 7.5 0 1 0 -15 0zM1235.09 551.93 a7.5 7.5 0 1 0 15 0 a7.5 7.5 0 1 0 -15 0zM1170.14 589.43 a7.5 7.5 0 1 0 15 0 a7.5 7.5 0 1 0 -15 0zM1105.18 551.93 a7.5 7.5 0 1 0 15 0 a7.5 7.5 0 1 0 -15 0zM1105.18 476.93 a7.5 7.5 0 1 0 15 0 a7.5 7.5 0 1 0 -15 0zM1235.09 776.93 a7.5 7.5 0 1 0 15 0 a7.5 7.5 0 1 0 -15 0zM1300.04 814.43 a7.5 7.5 0 1 0 15 0 a7.5 7.5 0 1 0 -15 0zM1300.04 889.43 a7.5 7.5 0 1 0 15 0 a7.5 7.5 0 1 0 -15 0zM1235.09 926.93 a7.5 7.5 0 1 0 15 0 a7.5 7.5 0 1 0 -15 0zM1300.05 -10.57 a7.5 7.5 0 1 0 15 0 a7.5 7.5 0 1 0 -15 0zM1365 26.93 a7.5 7.5 0 1 0 15 0 a7.5 7.5 0 1 0 -15 0zM1365 101.93 a7.5 7.5 0 1 0 15 0 a7.5 7.5 0 1 0 -15 0zM1300.05 139.43 a7.5 7.5 0 1 0 15 0 a7.5 7.5 0 1 0 -15 0zM1300.05 214.43 a7.5 7.5 0 1 0 15 0 a7.5 7.5 0 1 0 -15 0zM1365 251.93 a7.5 7.5 0 1 0 15 0 a7.5 7.5 0 1 0 -15 0zM1365 326.93 a7.5 7.5 0 1 0 15 0 a7.5 7.5 0 1 0 -15 0zM1300.05 364.43 a7.5 7.5 0 1 0 15 0 a7.5 7.5 0 1 0 -15 0zM1300.05 889.43 a7.5 7.5 0 1 0 15 0 a7.5 7.5 0 1 0 -15 0zM1365 926.93 a7.5 7.5 0 1 0 15 0 a7.5 7.5 0 1 0 -15 0zM1365 1001.93 a7.5 7.5 0 1 0 15 0 a7.5 7.5 0 1 0 -15 0zM1300.05 1039.43 a7.5 7.5 0 1 0 15 0 a7.5 7.5 0 1 0 -15 0zM1235.09 1001.93 a7.5 7.5 0 1 0 15 0 a7.5 7.5 0 1 0 -15 0zM1494.91 326.93 a7.5 7.5 0 1 0 15 0 a7.5 7.5 0 1 0 -15 0zM1559.86 364.43 a7.5 7.5 0 1 0 15 0 a7.5 7.5 0 1 0 -15 0zM1559.86 439.43 a7.5 7.5 0 1 0 15 0 a7.5 7.5 0 1 0 -15 0zM1494.91 476.93 a7.5 7.5 0 1 0 15 0 a7.5 7.5 0 1 0 -15 0zM1429.95 439.43 a7.5 7.5 0 1 0 15 0 a7.5 7.5 0 1 0 -15 0zM1429.95 364.43 a7.5 7.5 0 1 0 15 0 a7.5 7.5 0 1 0 -15 0z" fill="url(&quot;#SvgjsLinearGradient2575&quot;)"></path><path d="M60.54 37.77L103.84 62.77L103.84 112.77L60.54 137.77L17.24 112.77L17.24 62.77zM60.54 187.77L103.84 212.77L103.84 262.77L60.54 287.77L17.24 262.77L17.24 212.77zM17.24 262.77L60.54 287.77L60.54 337.77L17.24 362.77L-26.06 337.77L-26.06 287.77zM17.24 562.77L60.54 587.77L60.54 637.77L17.24 662.77L-26.06 637.77L-26.06 587.77zM60.54 637.77L103.84 662.77L103.84 712.77L60.54 737.77L17.24 712.77L17.24 662.77zM17.24 712.77L60.54 737.77L60.54 787.77L17.24 812.77L-26.06 787.77L-26.06 737.77zM60.54 787.77L103.84 812.77L103.84 862.77L60.54 887.77L17.24 862.77L17.24 812.77zM60.54 937.77L103.84 962.77L103.84 1012.77L60.54 1037.77L17.24 1012.77L17.24 962.77zM147.15 187.77L190.45 212.77L190.45 262.77L147.15 287.77L103.84 262.77L103.84 212.77zM103.84 412.77L147.15 437.77L147.15 487.77L103.84 512.77L60.54 487.77L60.54 437.77zM147.15 637.77L190.45 662.77L190.45 712.77L147.15 737.77L103.84 712.77L103.84 662.77zM147.15 937.77L190.45 962.77L190.45 1012.77L147.15 1037.77L103.84 1012.77L103.84 962.77zM103.84 1012.77L147.15 1037.77L147.15 1087.77L103.84 1112.77L60.54 1087.77L60.54 1037.77zM233.75 37.77L277.06 62.77L277.06 112.77L233.75 137.77L190.45 112.77L190.45 62.77zM233.75 187.77L277.06 212.77L277.06 262.77L233.75 287.77L190.45 262.77L190.45 212.77zM233.75 337.77L277.06 362.77L277.06 412.77L233.75 437.77L190.45 412.77L190.45 362.77zM190.45 412.77L233.75 437.77L233.75 487.77L190.45 512.77L147.15 487.77L147.15 437.77zM233.75 487.77L277.06 512.77L277.06 562.77L233.75 587.77L190.45 562.77L190.45 512.77zM233.75 637.77L277.06 662.77L277.06 712.77L233.75 737.77L190.45 712.77L190.45 662.77zM233.75 937.77L277.06 962.77L277.06 1012.77L233.75 1037.77L190.45 1012.77L190.45 962.77zM277.06 -37.23L320.36 -12.23L320.36 37.77L277.06 62.77L233.75 37.77L233.75 -12.23zM320.36 187.77L363.66 212.77L363.66 262.77L320.36 287.77L277.06 262.77L277.06 212.77zM277.06 412.77L320.36 437.77L320.36 487.77L277.06 512.77L233.75 487.77L233.75 437.77zM277.06 562.77L320.36 587.77L320.36 637.77L277.06 662.77L233.75 637.77L233.75 587.77zM320.36 637.77L363.66 662.77L363.66 712.77L320.36 737.77L277.06 712.77L277.06 662.77zM277.06 712.77L320.36 737.77L320.36 787.77L277.06 812.77L233.75 787.77L233.75 737.77zM320.36 787.77L363.66 812.77L363.66 862.77L320.36 887.77L277.06 862.77L277.06 812.77zM277.06 862.77L320.36 887.77L320.36 937.77L277.06 962.77L233.75 937.77L233.75 887.77zM277.06 1012.77L320.36 1037.77L320.36 1087.77L277.06 1112.77L233.75 1087.77L233.75 1037.77zM406.96 37.77L450.27 62.77L450.27 112.77L406.96 137.77L363.66 112.77L363.66 62.77zM363.66 112.77L406.96 137.77L406.96 187.77L363.66 212.77L320.36 187.77L320.36 137.77zM406.96 337.77L450.27 362.77L450.27 412.77L406.96 437.77L363.66 412.77L363.66 362.77zM363.66 412.77L406.96 437.77L406.96 487.77L363.66 512.77L320.36 487.77L320.36 437.77zM406.96 487.77L450.27 512.77L450.27 562.77L406.96 587.77L363.66 562.77L363.66 512.77zM406.96 637.77L450.27 662.77L450.27 712.77L406.96 737.77L363.66 712.77L363.66 662.77zM493.57 37.77L536.87 62.77L536.87 112.77L493.57 137.77L450.27 112.77L450.27 62.77zM450.27 112.77L493.57 137.77L493.57 187.77L450.27 212.77L406.96 187.77L406.96 137.77zM493.57 487.77L536.87 512.77L536.87 562.77L493.57 587.77L450.27 562.77L450.27 512.77zM450.27 562.77L493.57 587.77L493.57 637.77L450.27 662.77L406.96 637.77L406.96 587.77zM450.27 712.77L493.57 737.77L493.57 787.77L450.27 812.77L406.96 787.77L406.96 737.77zM450.27 862.77L493.57 887.77L493.57 937.77L450.27 962.77L406.96 937.77L406.96 887.77zM493.57 937.77L536.87 962.77L536.87 1012.77L493.57 1037.77L450.27 1012.77L450.27 962.77zM450.27 1012.77L493.57 1037.77L493.57 1087.77L450.27 1112.77L406.96 1087.77L406.96 1037.77zM536.87 -37.23L580.17 -12.23L580.17 37.77L536.87 62.77L493.57 37.77L493.57 -12.23zM580.17 37.77L623.48 62.77L623.48 112.77L580.17 137.77L536.87 112.77L536.87 62.77zM536.87 112.77L580.17 137.77L580.17 187.77L536.87 212.77L493.57 187.77L493.57 137.77zM536.87 412.77L580.17 437.77L580.17 487.77L536.87 512.77L493.57 487.77L493.57 437.77zM580.17 787.77L623.48 812.77L623.48 862.77L580.17 887.77L536.87 862.77L536.87 812.77zM666.78 37.77L710.08 62.77L710.08 112.77L666.78 137.77L623.48 112.77L623.48 62.77zM666.78 187.77L710.08 212.77L710.08 262.77L666.78 287.77L623.48 262.77L623.48 212.77zM623.48 262.77L666.78 287.77L666.78 337.77L623.48 362.77L580.17 337.77L580.17 287.77zM666.78 487.77L710.08 512.77L710.08 562.77L666.78 587.77L623.48 562.77L623.48 512.77zM623.48 562.77L666.78 587.77L666.78 637.77L623.48 662.77L580.17 637.77L580.17 587.77zM623.48 712.77L666.78 737.77L666.78 787.77L623.48 812.77L580.17 787.77L580.17 737.77zM623.48 862.77L666.78 887.77L666.78 937.77L623.48 962.77L580.17 937.77L580.17 887.77zM666.78 937.77L710.08 962.77L710.08 1012.77L666.78 1037.77L623.48 1012.77L623.48 962.77zM623.48 1012.77L666.78 1037.77L666.78 1087.77L623.48 1112.77L580.17 1087.77L580.17 1037.77zM753.38 37.77L796.69 62.77L796.69 112.77L753.38 137.77L710.08 112.77L710.08 62.77zM710.08 112.77L753.38 137.77L753.38 187.77L710.08 212.77L666.78 187.77L666.78 137.77zM710.08 262.77L753.38 287.77L753.38 337.77L710.08 362.77L666.78 337.77L666.78 287.77zM753.38 337.77L796.69 362.77L796.69 412.77L753.38 437.77L710.08 412.77L710.08 362.77zM710.08 862.77L753.38 887.77L753.38 937.77L710.08 962.77L666.78 937.77L666.78 887.77zM839.99 337.77L883.29 362.77L883.29 412.77L839.99 437.77L796.69 412.77L796.69 362.77zM839.99 487.77L883.29 512.77L883.29 562.77L839.99 587.77L796.69 562.77L796.69 512.77zM796.69 712.77L839.99 737.77L839.99 787.77L796.69 812.77L753.38 787.77L753.38 737.77zM796.69 862.77L839.99 887.77L839.99 937.77L796.69 962.77L753.38 937.77L753.38 887.77zM839.99 937.77L883.29 962.77L883.29 1012.77L839.99 1037.77L796.69 1012.77L796.69 962.77zM796.69 1012.77L839.99 1037.77L839.99 1087.77L796.69 1112.77L753.38 1087.77L753.38 1037.77zM926.59 37.77L969.9 62.77L969.9 112.77L926.59 137.77L883.29 112.77L883.29 62.77zM883.29 262.77L926.59 287.77L926.59 337.77L883.29 362.77L839.99 337.77L839.99 287.77zM926.59 487.77L969.9 512.77L969.9 562.77L926.59 587.77L883.29 562.77L883.29 512.77zM883.29 562.77L926.59 587.77L926.59 637.77L883.29 662.77L839.99 637.77L839.99 587.77zM926.59 637.77L969.9 662.77L969.9 712.77L926.59 737.77L883.29 712.77L883.29 662.77zM883.29 712.77L926.59 737.77L926.59 787.77L883.29 812.77L839.99 787.77L839.99 737.77zM883.29 1012.77L926.59 1037.77L926.59 1087.77L883.29 1112.77L839.99 1087.77L839.99 1037.77zM969.9 -37.23L1013.2 -12.23L1013.2 37.77L969.9 62.77L926.59 37.77L926.59 -12.23zM1013.2 187.77L1056.5 212.77L1056.5 262.77L1013.2 287.77L969.9 262.77L969.9 212.77zM969.9 262.77L1013.2 287.77L1013.2 337.77L969.9 362.77L926.59 337.77L926.59 287.77zM969.9 562.77L1013.2 587.77L1013.2 637.77L969.9 662.77L926.59 637.77L926.59 587.77zM969.9 712.77L1013.2 737.77L1013.2 787.77L969.9 812.77L926.59 787.77L926.59 737.77zM1099.8 187.77L1143.11 212.77L1143.11 262.77L1099.8 287.77L1056.5 262.77L1056.5 212.77zM1056.5 262.77L1099.8 287.77L1099.8 337.77L1056.5 362.77L1013.2 337.77L1013.2 287.77zM1056.5 412.77L1099.8 437.77L1099.8 487.77L1056.5 512.77L1013.2 487.77L1013.2 437.77zM1056.5 562.77L1099.8 587.77L1099.8 637.77L1056.5 662.77L1013.2 637.77L1013.2 587.77zM1099.8 637.77L1143.11 662.77L1143.11 712.77L1099.8 737.77L1056.5 712.77L1056.5 662.77zM1056.5 712.77L1099.8 737.77L1099.8 787.77L1056.5 812.77L1013.2 787.77L1013.2 737.77zM1056.5 862.77L1099.8 887.77L1099.8 937.77L1056.5 962.77L1013.2 937.77L1013.2 887.77zM1143.11 -37.23L1186.41 -12.23L1186.41 37.77L1143.11 62.77L1099.8 37.77L1099.8 -12.23zM1186.41 37.77L1229.71 62.77L1229.71 112.77L1186.41 137.77L1143.11 112.77L1143.11 62.77zM1186.41 787.77L1229.71 812.77L1229.71 862.77L1186.41 887.77L1143.11 862.77L1143.11 812.77zM1143.11 862.77L1186.41 887.77L1186.41 937.77L1143.11 962.77L1099.8 937.77L1099.8 887.77zM1229.71 -37.23L1273.01 -12.23L1273.01 37.77L1229.71 62.77L1186.41 37.77L1186.41 -12.23zM1273.01 37.77L1316.32 62.77L1316.32 112.77L1273.01 137.77L1229.71 112.77L1229.71 62.77zM1229.71 412.77L1273.01 437.77L1273.01 487.77L1229.71 512.77L1186.41 487.77L1186.41 437.77zM1273.01 487.77L1316.32 512.77L1316.32 562.77L1273.01 587.77L1229.71 562.77L1229.71 512.77zM1229.71 712.77L1273.01 737.77L1273.01 787.77L1229.71 812.77L1186.41 787.77L1186.41 737.77zM1273.01 937.77L1316.32 962.77L1316.32 1012.77L1273.01 1037.77L1229.71 1012.77L1229.71 962.77zM1316.32 -37.23L1359.62 -12.23L1359.62 37.77L1316.32 62.77L1273.01 37.77L1273.01 -12.23zM1359.62 37.77L1402.92 62.77L1402.92 112.77L1359.62 137.77L1316.32 112.77L1316.32 62.77zM1316.32 112.77L1359.62 137.77L1359.62 187.77L1316.32 212.77L1273.01 187.77L1273.01 137.77zM1316.32 262.77L1359.62 287.77L1359.62 337.77L1316.32 362.77L1273.01 337.77L1273.01 287.77zM1316.32 412.77L1359.62 437.77L1359.62 487.77L1316.32 512.77L1273.01 487.77L1273.01 437.77zM1316.32 562.77L1359.62 587.77L1359.62 637.77L1316.32 662.77L1273.01 637.77L1273.01 587.77zM1316.32 1012.77L1359.62 1037.77L1359.62 1087.77L1316.32 1112.77L1273.01 1087.77L1273.01 1037.77zM1402.92 -37.23L1446.22 -12.23L1446.22 37.77L1402.92 62.77L1359.62 37.77L1359.62 -12.23zM1402.92 112.77L1446.22 137.77L1446.22 187.77L1402.92 212.77L1359.62 187.77L1359.62 137.77zM1402.92 412.77L1446.22 437.77L1446.22 487.77L1402.92 512.77L1359.62 487.77L1359.62 437.77zM1402.92 712.77L1446.22 737.77L1446.22 787.77L1402.92 812.77L1359.62 787.77L1359.62 737.77zM1446.22 787.77L1489.53 812.77L1489.53 862.77L1446.22 887.77L1402.92 862.77L1402.92 812.77zM1446.22 937.77L1489.53 962.77L1489.53 1012.77L1446.22 1037.77L1402.92 1012.77L1402.92 962.77zM1402.92 1012.77L1446.22 1037.77L1446.22 1087.77L1402.92 1112.77L1359.62 1087.77L1359.62 1037.77z" stroke="url(&quot;#SvgjsLinearGradient2576&quot;)" stroke-width="2"></path></g><defs><mask id="SvgjsMask2573"><rect width="1440" height="1020" fill="#ffffff"></rect></mask><linearGradient x1="7.29%" y1="-10.29%" x2="92.71%" y2="110.29%" gradientUnits="userSpaceOnUse" id="SvgjsLinearGradient2574"><stop stop-color="#0e2a47" offset="0"></stop><stop stop-color="rgba(64, 31, 33, 1)" offset="1"></stop></linearGradient><linearGradient x1="104.97600000000001" y1="-104.958" x2="1335.024" y2="1124.958" gradientUnits="userSpaceOnUse" id="SvgjsLinearGradient2575"><stop stop-color="rgba(158, 0, 129, 1)" offset="0"></stop><stop stop-color="rgba(203, 64, 120, 1)" offset="1"></stop></linearGradient><linearGradient x1="104.97600000000001" y1="-104.958" x2="1335.024" y2="1124.958" gradientUnits="userSpaceOnUse" id="SvgjsLinearGradient2576"><stop stop-color="#0e2a47" offset="0"></stop><stop stop-color="rgba(214, 0, 255, 1)" offset="1"></stop></linearGradient></defs></svg>